<svg xmlns="http://www.w3.org/2000/svg" xmlns:xlink="http://www.w3.org/1999/xlink" xmlns:lucid="lucid" width="736" height="350.21"><g transform="translate(-357.21967501175016 -1412.0488817532096)" lucid:page-tab-id="0_0"><path d="M357.72 1419.82a6 6 0 0 1 6-6h191a6 6 0 0 1 6 6v62.8a6 6 0 0 1-6 6h-191a6 6 0 0 1-6-6z" stroke="#3a414a" fill="#fff3d9"/><use xlink:href="#a" transform="matrix(1,0,0,1,369.7196750430369,1425.8201491279242) translate(10.181481481481484 29.81666666666667)"/><use xlink:href="#b" transform="matrix(1,0,0,1,369.7196750430369,1425.8201491279242) translate(94.21111111111112 29.81666666666667)"/><path d="M357.72 1510.6a6 6 0 0 1 6-6h191a6 6 0 0 1 6 6v62.8a6 6 0 0 1-6 6h-191a6 6 0 0 1-6-6z" stroke="#3a414a" fill="#fff3d9"/><use xlink:href="#c" transform="matrix(1,0,0,1,369.7196750430369,1516.6109477324005) translate(19.04074074074073 29.81666666666667)"/><use xlink:href="#b" transform="matrix(1,0,0,1,369.7196750430369,1516.6109477324005) translate(85.35185185185186 29.81666666666667)"/><path d="M648.4 1418.55a6 6 0 0 1 6-6h190.97a6 6 0 0 1 6 6v65.33a6 6 0 0 1-6 6H654.4a6 6 0 0 1-6-6z" stroke="#3a414a" fill="#fff3d9"/><use xlink:href="#d" transform="matrix(1,0,0,1,660.3863417097036,1424.5488817634957) translate(65.23333333333332 30.56666666666667)"/><path d="M561.7 1451.22h69.8" stroke="#3a414a" fill="none"/><path d="M561.72 1451.72h-.5v-1h.5z" stroke="#3a414a" stroke-width=".05" fill="#3a414a"/><path d="M646.27 1451.22l-14.27 4.63v-9.27z" stroke="#3a414a" fill="#3a414a"/><path d="M561.7 1542h36.85a6 6 0 0 0 6-6v-78.78a6 6 0 0 1 6-6h20.95" stroke="#3a414a" fill="none"/><path d="M561.72 1542.5h-.5v-1h.5z" stroke="#3a414a" stroke-width=".05" fill="#3a414a"/><path d="M646.27 1451.22l-14.27 4.63v-9.27z" stroke="#3a414a" fill="#3a414a"/><path d="M357.72 1601.4a6 6 0 0 1 6-6h191a6 6 0 0 1 6 6v62.8a6 6 0 0 1-6 6h-191a6 6 0 0 1-6-6z" stroke="#3a414a" fill="#e3fae3"/><use xlink:href="#c" transform="matrix(1,0,0,1,369.7196750430369,1607.4017463368768) translate(42.18148148148147 29.81666666666667)"/><use xlink:href="#e" transform="matrix(1,0,0,1,369.7196750430369,1607.4017463368768) translate(108.4925925925926 29.81666666666667)"/><path d="M357.72 1692.2a6 6 0 0 1 6-6h191a6 6 0 0 1 6 6v62.78a6 6 0 0 1-6 6h-191a6 6 0 0 1-6-6z" stroke="#3a414a" fill="#e3fae3"/><use xlink:href="#f" transform="matrix(1,0,0,1,369.7196750430369,1698.1925449413532) translate(36.84814814814814 29.81666666666667)"/><use xlink:href="#e" transform="matrix(1,0,0,1,369.7196750430369,1698.1925449413532) translate(113.82592592592593 29.81666666666667)"/><path d="M648.4 1690.42a6 6 0 0 1 6-6h190.97a6 6 0 0 1 6 6v65.34a6 6 0 0 1-6 6H654.4a6 6 0 0 1-6-6z" stroke="#3a414a" fill="#e3fae3"/><use xlink:href="#g" transform="matrix(1,0,0,1,660.3863417097036,1696.4247498256857) translate(37.41111111111111 30.56666666666667)"/><path d="M561.7 1723.6h42.6a.25.25 0 0 0 .25-.26.25.25 0 0 1 .24-.25h26.7" stroke="#3a414a" fill="none"/><path d="M561.72 1724.1h-.5v-1h.5z" stroke="#3a414a" stroke-width=".05" fill="#3a414a"/><path d="M646.27 1723.1l-14.27 4.63v-9.27z" stroke="#3a414a" fill="#3a414a"/><path d="M561.7 1632.8h36.85a6 6 0 0 1 6 6v78.3a6 6 0 0 0 6 6h20.95" stroke="#3a414a" fill="none"/><path d="M561.72 1633.3h-.5v-1h.5z" stroke="#3a414a" stroke-width=".05" fill="#3a414a"/><path d="M646.27 1723.1l-14.27 4.63v-9.27z" stroke="#3a414a" fill="#3a414a"/><path d="M852.37 1451.22h224.47" stroke="#3a414a" fill="none"/><path d="M852.4 1451.72h-.53v-1h.5z" stroke="#3a414a" stroke-width=".05" fill="#3a414a"/><path d="M1091.6 1451.22l-14.26 4.63v-9.27z" stroke="#3a414a" fill="#3a414a"/><path d="M852.37 1723.1h224.47" stroke="#3a414a" fill="none"/><path d="M852.4 1723.6h-.53v-1h.5z" stroke="#3a414a" stroke-width=".05" fill="#3a414a"/><path d="M1091.6 1723.1l-14.26 4.63v-9.27z" stroke="#3a414a" fill="#3a414a"/><path d="M852.37 1451.22h114.18a6 6 0 0 1 6 6V1558a6 6 0 0 0 6 6h98.3" stroke="#3a414a" fill="none"/><path d="M852.4 1451.72h-.53v-1h.5z" stroke="#3a414a" stroke-width=".05" fill="#3a414a"/><path d="M1091.6 1564l-14.26 4.63v-9.27z" stroke="#3a414a" fill="#3a414a"/><path d="M852.37 1723.1h114.18a6 6 0 0 0 6-6v-104.43a6 6 0 0 1 6-6h98.3" stroke="#3a414a" fill="none"/><path d="M852.4 1723.6h-.53v-1h.5z" stroke="#3a414a" stroke-width=".05" fill="#3a414a"/><path d="M1091.6 1606.67l-14.26 4.63v-9.27z" stroke="#3a414a" fill="#3a414a"/><defs><path d="M30 0v-248h187v28H63v79h144v27H63v87h162V0H30" id="h"/><path d="M141 0L90-78 38 0H4l68-98-65-92h35l48 74 47-74h35l-64 92 68 98h-35" id="i"/><path d="M59-47c-2 24 18 29 38 22v24C64 9 27 4 27-40v-127H5v-23h24l9-43h21v43h35v23H59v120" id="j"/><path d="M100-194c63 0 86 42 84 106H49c0 40 14 67 53 68 26 1 43-12 49-29l28 8c-11 28-37 45-77 45C44 4 14-33 15-96c1-61 26-98 85-98zm52 81c6-60-76-77-97-28-3 7-6 17-6 28h103" id="k"/><path d="M114-163C36-179 61-72 57 0H25l-1-190h30c1 12-1 29 2 39 6-27 23-49 58-41v29" id="l"/><path d="M117-194c89-4 53 116 60 194h-32v-121c0-31-8-49-39-48C34-167 62-67 57 0H25l-1-190h30c1 10-1 24 2 32 11-22 29-35 61-36" id="m"/><path d="M141-36C126-15 110 5 73 4 37 3 15-17 15-53c-1-64 63-63 125-63 3-35-9-54-41-54-24 1-41 7-42 31l-33-3c5-37 33-52 76-52 45 0 72 20 72 64v82c-1 20 7 32 28 27v20c-31 9-61-2-59-35zM48-53c0 20 12 33 32 33 41-3 63-29 60-74-43 2-92-5-92 41" id="n"/><path d="M24 0v-261h32V0H24" id="o"/><g id="a"><use transform="matrix(0.05925925925925927,0,0,0.05925925925925927,0,0)" xlink:href="#h"/><use transform="matrix(0.05925925925925927,0,0,0.05925925925925927,14.222222222222225,0)" xlink:href="#i"/><use transform="matrix(0.05925925925925927,0,0,0.05925925925925927,24.888888888888893,0)" xlink:href="#j"/><use transform="matrix(0.05925925925925927,0,0,0.05925925925925927,30.81481481481482,0)" xlink:href="#k"/><use transform="matrix(0.05925925925925927,0,0,0.05925925925925927,42.66666666666667,0)" xlink:href="#l"/><use transform="matrix(0.05925925925925927,0,0,0.05925925925925927,49.71851851851852,0)" xlink:href="#m"/><use transform="matrix(0.05925925925925927,0,0,0.05925925925925927,61.57037037037038,0)" xlink:href="#n"/><use transform="matrix(0.05925925925925927,0,0,0.05925925925925927,73.42222222222223,0)" xlink:href="#o"/></g><path d="M135-143c-3-34-86-38-87 0 15 53 115 12 119 90S17 21 10-45l28-5c4 36 97 45 98 0-10-56-113-15-118-90-4-57 82-63 122-42 12 7 21 19 24 35" id="p"/><path d="M100-194c62-1 85 37 85 99 1 63-27 99-86 99S16-35 15-95c0-66 28-99 85-99zM99-20c44 1 53-31 53-75 0-43-8-75-51-75s-53 32-53 75 10 74 51 75" id="q"/><g id="b"><use transform="matrix(0.05925925925925927,0,0,0.05925925925925927,0,0)" xlink:href="#p"/><use transform="matrix(0.05925925925925927,0,0,0.05925925925925927,10.666666666666668,0)" xlink:href="#k"/><use transform="matrix(0.05925925925925927,0,0,0.05925925925925927,22.51851851851852,0)" xlink:href="#m"/><use transform="matrix(0.05925925925925927,0,0,0.05925925925925927,34.370370370370374,0)" xlink:href="#p"/><use transform="matrix(0.05925925925925927,0,0,0.05925925925925927,45.03703703703704,0)" xlink:href="#q"/><use transform="matrix(0.05925925925925927,0,0,0.05925925925925927,56.88888888888889,0)" xlink:href="#l"/><use transform="matrix(0.05925925925925927,0,0,0.05925925925925927,63.940740740740736,0)" xlink:href="#p"/></g><path d="M153-248C145-148 188 4 80 4 36 3 13-21 6-62l32-5c4 25 16 42 43 43 27 0 39-20 39-49v-147H72v-28h81" id="r"/><path d="M96-169c-40 0-48 33-48 73s9 75 48 75c24 0 41-14 43-38l32 2c-6 37-31 61-74 61-59 0-76-41-82-99-10-93 101-131 147-64 4 7 5 14 7 22l-32 3c-4-21-16-35-41-35" id="s"/><path d="M143 0L79-87 56-68V0H24v-261h32v163l83-92h37l-77 82L181 0h-38" id="t"/><g id="c"><use transform="matrix(0.05925925925925927,0,0,0.05925925925925927,0,0)" xlink:href="#r"/><use transform="matrix(0.05925925925925927,0,0,0.05925925925925927,10.666666666666668,0)" xlink:href="#n"/><use transform="matrix(0.05925925925925927,0,0,0.05925925925925927,22.51851851851852,0)" xlink:href="#s"/><use transform="matrix(0.05925925925925927,0,0,0.05925925925925927,33.18518518518519,0)" xlink:href="#t"/><use transform="matrix(0.05925925925925927,0,0,0.05925925925925927,43.85185185185186,0)" xlink:href="#n"/><use transform="matrix(0.05925925925925927,0,0,0.05925925925925927,55.70370370370372,0)" xlink:href="#o"/></g><path d="M266 0h-40l-56-210L115 0H75L2-248h35L96-30l15-64 43-154h32l59 218 59-218h35" id="u"/><path d="M194 0L95-120 63-95V0H30v-248h33v124l119-124h40L117-140 236 0h-42" id="v"/><g id="d"><use transform="matrix(0.05925925925925927,0,0,0.05925925925925927,0,0)" xlink:href="#h"/><use transform="matrix(0.05925925925925927,0,0,0.05925925925925927,14.222222222222225,0)" xlink:href="#u"/><use transform="matrix(0.05925925925925927,0,0,0.05925925925925927,34.31111111111112,0)" xlink:href="#v"/></g><path d="M30-248c118-7 216 8 213 122C240-48 200 0 122 0H30v-248zM63-27c89 8 146-16 146-99s-60-101-146-95v194" id="w"/><path d="M127-220V0H93v-220H8v-28h204v28h-85" id="x"/><g id="e"><use transform="matrix(0.05925925925925927,0,0,0.05925925925925927,0,0)" xlink:href="#w"/><use transform="matrix(0.05925925925925927,0,0,0.05925925925925927,15.34814814814815,0)" xlink:href="#x"/></g><path d="M185-189c-5-48-123-54-124 2 14 75 158 14 163 119 3 78-121 87-175 55-17-10-28-26-33-46l33-7c5 56 141 63 141-1 0-78-155-14-162-118-5-82 145-84 179-34 5 7 8 16 11 25" id="y"/><path d="M179-190L93 31C79 59 56 82 12 73V49c39 6 53-20 64-50L1-190h34L92-34l54-156h33" id="z"/><path d="M210-169c-67 3-38 105-44 169h-31v-121c0-29-5-50-35-48C34-165 62-65 56 0H25l-1-190h30c1 10-1 24 2 32 10-44 99-50 107 0 11-21 27-35 58-36 85-2 47 119 55 194h-31v-121c0-29-5-49-35-48" id="A"/><g id="f"><use transform="matrix(0.05925925925925927,0,0,0.05925925925925927,0,0)" xlink:href="#y"/><use transform="matrix(0.05925925925925927,0,0,0.05925925925925927,14.222222222222225,0)" xlink:href="#z"/><use transform="matrix(0.05925925925925927,0,0,0.05925925925925927,24.888888888888893,0)" xlink:href="#p"/><use transform="matrix(0.05925925925925927,0,0,0.05925925925925927,35.55555555555556,0)" xlink:href="#j"/><use transform="matrix(0.05925925925925927,0,0,0.05925925925925927,41.48148148148148,0)" xlink:href="#k"/><use transform="matrix(0.05925925925925927,0,0,0.05925925925925927,53.333333333333336,0)" xlink:href="#A"/></g><path d="M212-179c-10-28-35-45-73-45-59 0-87 40-87 99 0 60 29 101 89 101 43 0 62-24 78-52l27 14C228-24 195 4 139 4 59 4 22-46 18-125c-6-104 99-153 187-111 19 9 31 26 39 46" id="B"/><path d="M106-169C34-169 62-67 57 0H25v-261h32l-1 103c12-21 28-36 61-36 89 0 53 116 60 194h-32v-121c2-32-8-49-39-48" id="C"/><g id="g"><use transform="matrix(0.05925925925925927,0,0,0.05925925925925927,0,0)" xlink:href="#B"/><use transform="matrix(0.05925925925925927,0,0,0.05925925925925927,15.34814814814815,0)" xlink:href="#q"/><use transform="matrix(0.05925925925925927,0,0,0.05925925925925927,27.200000000000003,0)" xlink:href="#C"/><use transform="matrix(0.05925925925925927,0,0,0.05925925925925927,39.05185185185186,0)" xlink:href="#k"/><use transform="matrix(0.05925925925925927,0,0,0.05925925925925927,50.90370370370371,0)" xlink:href="#l"/><use transform="matrix(0.05925925925925927,0,0,0.05925925925925927,57.95555555555556,0)" xlink:href="#k"/><use transform="matrix(0.05925925925925927,0,0,0.05925925925925927,69.80740740740741,0)" xlink:href="#m"/><use transform="matrix(0.05925925925925927,0,0,0.05925925925925927,81.65925925925926,0)" xlink:href="#s"/><use transform="matrix(0.05925925925925927,0,0,0.05925925925925927,92.32592592592593,0)" xlink:href="#k"/></g></defs></g></svg>